<svg xmlns="http://www.w3.org/2000/svg" viewBox="0 0 506.63 506.63"><defs><style>.cls-1{fill:#3a6de2;}.cls-2{fill:none;stroke:#fff;stroke-miterlimit:10;stroke-width:6.54px;}.cls-3{fill:#fff;}.cls-4{fill:#f2b443;}</style></defs><g id="Layer_2" data-name="Layer 2"><g id="Layer_1-2" data-name="Layer 1"><rect class="cls-1" width="506.63" height="506.63" rx="68.72"/><circle class="cls-2" cx="253.31" cy="253.31" r="226.64"/><path class="cls-3" d="M275.59,374.88h68.93c7.79,0,7.44-7.78,7.44-7.78V260.64l-97.23-86.42L151.56,260.64V368.87s-.21,6.26,5.85,6.26c7.62,0,70.45-.1,70.45-.1Z"/><path class="cls-3" d="M113.57,252.61s8.74,16.16,27.87,0L255.58,156l107.08,96c22.12,16,30.4,0,30.4,0L255.58,127.51Z"/><path class="cls-3" d="M360,155.78H332.51l.09,33.4L360,212.45Z"/><rect class="cls-1" x="228.49" y="312.88" width="50.6" height="66.24"/><path class="cls-4" d="M383.26,352.11a7.88,7.88,0,0,1-1.32-6.34,9.66,9.66,0,0,1,3.78-5.84c4.08-3,9.61-2.48,12.35,1.22l17.23,23.27c14.77,20,30.94,53.45,3.83,73.52-9.75,7.22-22.88,12.13-35.65,9.76l-58.06-14.13c-3-.74-5.47-1.72-7-3.82a9.76,9.76,0,0,1-1.63-7.82,12.25,12.25,0,0,1,13-9.57l29,3.07-49.51-66.88a8.72,8.72,0,0,1-1.46-7.06,10.85,10.85,0,0,1,4.94-7,10,10,0,0,1,13.32,2.21l19.57,26.44a7.89,7.89,0,0,1-1.32-6.34,9.6,9.6,0,0,1,3.77-5.8c4.11-3,9.6-2.5,12.34,1.2l3.72,5a7.93,7.93,0,0,1-1.33-6.34,9.74,9.74,0,0,1,3.79-5.85c4.08-3,9.61-2.48,12.35,1.23Z"/><path class="cls-3" d="M365.52,359.11a2.32,2.32,0,0,1-3.24-.49l-3.72-5c-2-2.66-6.05-3-9.1-.72a7.31,7.31,0,0,0-2.88,4.37,5.63,5.63,0,0,0,.91,4.53,2.32,2.32,0,1,1-3.72,2.76,10.19,10.19,0,0,1-1.73-8.18,11.92,11.92,0,0,1,4.67-7.2c5.1-3.78,12.08-3,15.57,1.68l3.72,5A2.32,2.32,0,0,1,365.52,359.11Z"/><path class="cls-3" d="M383,382.7a2.32,2.32,0,0,1-3.24-.49l-8.87-12a2.32,2.32,0,0,1,3.73-2.76l8.86,12A2.31,2.31,0,0,1,383,382.7Z"/><path class="cls-3" d="M374.11,370.72a2.32,2.32,0,0,1-3.24-.48l-8.59-11.62a10.17,10.17,0,0,1-1.74-8.17,12,12,0,0,1,4.68-7.25c5.1-3.78,12.1-3,15.59,1.71l4.31,5.83a2.31,2.31,0,1,1-3.72,2.75l-4.31-5.83c-2-2.66-6.06-3-9.11-.74a7.4,7.4,0,0,0-2.9,4.44,5.61,5.61,0,0,0,.92,4.51l8.6,11.61A2.32,2.32,0,0,1,374.11,370.72Z"/><path class="cls-3" d="M401.17,376.31a2.32,2.32,0,0,1-3.24-.49l-6.73-9.09a2.32,2.32,0,0,1,3.72-2.76l6.73,9.1A2.31,2.31,0,0,1,401.17,376.31Z"/><path class="cls-3" d="M420.51,439.8c-11.76,8.7-25.4,12.41-37.45,10.17l-58.19-14.15c-2.94-.72-6.22-1.84-8.34-4.69a12,12,0,0,1-2-9.65A14.59,14.59,0,0,1,330,410.06l23.8,2.51L307.4,349.92a10.94,10.94,0,0,1-1.86-8.91,13.2,13.2,0,0,1,6-8.46,12.29,12.29,0,0,1,16.42,2.79l37.86,51.15a2.32,2.32,0,1,1-3.72,2.76L324.2,338.09A7.65,7.65,0,0,0,314,336.46a8.52,8.52,0,0,0-3.91,5.47,6.45,6.45,0,0,0,1.05,5.24l49.51,66.88a2.31,2.31,0,0,1-2.1,3.68l-29-3.07A9.88,9.88,0,0,0,319,422.39a7.45,7.45,0,0,0,1.22,6c1,1.35,2.66,2.2,5.72,2.95L384,445.45c10.66,2,23-1.43,33.72-9.37,27.82-20.59,6.25-56-4.31-70.28l-17.23-23.27c-2-2.67-6.06-3-9.11-.74a7.38,7.38,0,0,0-2.89,4.44,5.6,5.6,0,0,0,.91,4.51l9.8,13.23a2.32,2.32,0,1,1-3.72,2.76l-9.8-13.24a10.18,10.18,0,0,1-1.73-8.18,12,12,0,0,1,4.68-7.24c5.1-3.78,12.09-3,15.58,1.7L417.16,363C428.55,378.44,451.68,416.72,420.51,439.8Z"/></g></g></svg>